/* XPM */
static char *_960b2474f2a4bbca561bca873f4bf3aalP6b3QjB4nqh50j[] = {
/* columns rows colors chars-per-pixel */
"32 32 3 1 ",
"  c #4C8B4A",
". c #62BA53",
"X c #87D961",
/* pixels */
"................................",
"................................",
"................................",
"................................",
"....XX..........................",
"....XX..........................",
"................................",
"................................",
"........................XX......",
"........................XX......",
"........................XX......",
"........................XX......",
"..........XX............  ......",
"..........XX............  ......",
"........XX  ....................",
"........XX  ....................",
"....XX..XX......................",
"....XX..XX......................",
"....XX..XX......................",
"....XX..XX......................",
"....  ..  ..........XX....XX....",
"....  ..  ..........XX....XX....",
"....................  XX..XX....",
"....................  XX..XX....",
"......................XX..XX....",
"......................XX..XX....",
"......................  ..  ....",
"......................  ..  ....",
"................................",
"................................",
"................................",
"................................"
};
