/* XPM */
static char *_938efd086e7463dec7d6b771898ebc0CqRP9nkRmM4CZY1T[] = {
/* columns rows colors chars-per-pixel */
"32 32 5 1 ",
"  c None",
". c #041724",
"X c #4C8B4A",
"o c #62BA53",
"O c #87D961",
/* pixels */
" ooooooooooooooooooooooooooooooo",
" ooooooooooooooooooooooooooooooo",
" ooooooooooooooooooooooooooooooo",
" ooooooooooooooooooooooooooooooo",
" ooooOOooooooooooooooooooooooooo",
" ooooOOooooooooooooooooooooooooo",
" ooooooooooooooooooooooooooooooo",
" ooooooooooooooooooooooooooooooo",
" ooooooooooooooooooooooooOOooooo",
" ooooooooooooooooooooooooOOooooo",
" ooooooooooooooooooooooooOOooooo",
" ooooooooooooooooooooooooOOooooo",
" ooooooooooOOooooooooooooXXooooo",
" ooooooooooOOooooooooooooXXooooo",
" ooooooooOOXXooooooooooooooooooo",
" ooooooooOOXXooooooooooooooooooo",
" ooooOOooOOooooooooooooooooooooo",
" ooooOOooOOooooooooooooooooooooo",
" ooooOOooOOooooooooooooooooooooo",
" ooooOOooOOooooooooooooooooooooo",
" ooooXXooXXooooooooooOOooooOOooo",
" ooooXXooXXooooooooooOOooooOOooo",
".ooooooooooooooooooooXXOOooOOooo",
".ooooooooooooooooooooXXOOooOOooo",
" ooooooooooooooooooooooOOooOOooo",
" ooooooooooooooooooooooOOooOOooo",
" ooooooooooooooooooooooXXooXXooo",
" ooooooooooooooooooooooXXooXXooo",
" ooooooooooooooooooooooooooooooo",
" ooooooooooooooooooooooooooooooo",
" ooooooooooooooooooooooooooooooo",
" ooooooooooooooooooooooooooooooo"
};
