/* XPM */
static char *abded71850f84d8ff4cb5d047115715ewbE6IvOxSiEXTZ0d[] = {
/* columns rows colors chars-per-pixel */
"32 32 7 1 ",
"  c None",
". c #151515",
"X c #3A3A3A",
"o c #4F4432",
"O c #785928",
"+ c #A3722B",
"@ c #D39035",
/* pixels */
"                                ",
"                                ",
"                                ",
"                                ",
"                                ",
"                                ",
"          @@@@@@                ",
"          @@@@@@                ",
"        OO++++OO@@              ",
"        OO++++OO@@              ",
"        oooo++OOOO@@            ",
"        oooo++OOOO@@            ",
"      XXoo++++..++OO@@          ",
"      XXoo++++..++OO@@          ",
"    XXXXXXoo++ooOO++OO@@        ",
"    XXXXXXoo++ooOO++OO@@        ",
"      XXXXXXooOO++++++OO@@      ",
"      XXXXXXooOO++++++OO@@      ",
"        XXXXXXoo++OOOO..@@      ",
"        XXXXXXoo++OOOO..@@      ",
"          XXXXXXooOO......++    ",
"          XXXXXXooOO......++    ",
"            XXXXXXoo......++    ",
"            XXXXXXoo......++    ",
"              XXXXXXoo..OO      ",
"              XXXXXXoo..OO      ",
"                  XXXXOO        ",
"                  XXXXOO        ",
"                                ",
"                                ",
"                                ",
"                                "
};
