/* XPM */
static char *_4fc54dbd797451384e9c4afed16255e2JlEkjAikF6VD0LI[] = {
/* columns rows colors chars-per-pixel */
"32 32 8 1 ",
"  c None",
". c #151515",
"X c gray20",
"o c gray21",
"O c #3A3A3A",
"+ c gray26",
"@ c #6A715E",
"# c #7B846D",
/* pixels */
"                                ",
"                                ",
"                                ",
"                                ",
"                                ",
"                                ",
"                                ",
"                                ",
"                XXXX            ",
"                XXXX            ",
"            XXXX@@##XXXX        ",
"            XXXX@@##XXXX        ",
"        XXXX@@##XXXX@@##XXXX    ",
"        XXXX@@##XXXX@@##XXXX    ",
"      XX@@##XXOOOOOOOOXX##@@XX  ",
"      XX@@##XXOOOOOOOOXX##@@XX  ",
"  OO++XXXX@@XX    OOOOXX@@XXXX  ",
"  OO++XXXX@@XX    OOOOXX@@XXXX  ",
"OOOOXX@@##XXXX..    OOXXXX##@@XX",
"OOOOXX@@##XXXX..    OOXXXX##@@XX",
"  OO++++@@XX@@##XXXXXX@@XX@@++XX",
"  OO++++@@XX@@##XXXXXX@@XX@@++XX",
"OOOOOOoo++++@@XX##@@XX@@++++oo  ",
"OOOOOOoo++++@@XX##@@XX@@++++oo  ",
"    OOOOOOXX++XX@@@@++++XX      ",
"    OOOOOOXX++XX@@@@++++XX      ",
"      OOOOOOOO++++++XX++        ",
"      OOOOOOOO++++++XX++        ",
"          OOOOOOOOOO            ",
"          OOOOOOOOOO            ",
"                                ",
"                                "
};
