/* XPM */
static char *ac086653c16a420cd37fe5fb2f4174ccOvw208RSn7NAKAIx[] = {
/* columns rows colors chars-per-pixel */
"32 32 23 1 ",
"  c None",
". c #41231D",
"X c #412A3B",
"o c #603B33",
"O c #7F4C33",
"+ c #234665",
"@ c #3B5F7F",
"# c #74524A",
"$ c #882C28",
"% c #942F2A",
"& c #A03B37",
"* c #B5504C",
"= c #C14F55",
"- c #CB5F66",
"; c #B9B139",
": c #C28C53",
"> c #C79661",
", c #D1A26F",
"< c #CEC541",
"1 c #E0D74D",
"2 c #4B7090",
"3 c #64BFD9",
"4 c #7ACBE1",
/* pixels */
"                                ",
"                                ",
"          ........oooo          ",
"          ........oooo          ",
"        ..........oooo##        ",
"        ..........oooo##        ",
"        ......oooooooooo        ",
"        ......oooooooooo        ",
"      ,,..>>oooooooo>>oo,,      ",
"      ,,..>>oooooooo>>oo,,      ",
"      ,,..,,>>>>>>>>,,oo,,      ",
"      ,,..,,>>>>>>>>,,oo,,      ",
"      33..,,XX,,,,XX,,oo33      ",
"      33..,,XX,,,,XX,,oo33      ",
"      44%%,,,,,,,,,,,,&&44      ",
"      44%%,,,,,,,,,,,,&&44      ",
"        ==  ,,,,,,,,  --        ",
"        ==  ,,,,,,,,  --        ",
"        %%  ++::::@@  &&        ",
"        %%  ++::::@@  &&        ",
"        ..;;;;++@@<<11oo        ",
"        ..;;;;++@@<<11oo        ",
"        ..$$$$@@@@&&**oo        ",
"        ..$$$$@@@@&&**oo        ",
"        ,,$$$$@@@@****,,        ",
"        ,,$$$$@@@@****,,        ",
"          ++@@@@@@@@22          ",
"          ++@@@@@@@@22          ",
"          OOOO    OOOO          ",
"          OOOO    OOOO          ",
"                                ",
"                                "
};
