/* XPM */
static char *_7b4a285ac904b78a8b22e6f80a31d58yf3w9CQQS9HhbnTv[] = {
/* columns rows colors chars-per-pixel */
"32 32 15 1 ",
"  c None",
". c #172F1C",
"X c #1B2A21",
"o c #263D2F",
"O c #292C31",
"+ c #2C2F34",
"@ c #224529",
"# c #32653C",
"$ c #385A45",
"% c #6A715E",
"& c #727A65",
"* c #428748",
"= c #4B9457",
"- c #7B846D",
"; c #62C669",
/* pixels */
"                                ",
"                                ",
"          $$oooo$$oooo$$        ",
"          $$oooo$$oooo$$        ",
"      $$XX############..oo      ",
"      $$XX############..oo      ",
"      ######;;##;;==;;####XX    ",
"      ######;;##;;==;;####XX    ",
"    ####====;;##==;;======@@    ",
"    ####====;;##==;;======@@    ",
"    @@@@;;##==;;;;==##;;**..    ",
"    @@@@;;##==;;;;==##;;**..    ",
"  $$..==;;==;;;;;;;;========$$  ",
"  $$..==;;==;;;;;;;;========$$  ",
"  $$##;;==;;;;;;;;;;;;======##  ",
"  $$##;;==;;;;;;;;;;;;======##  ",
"  $$##==;;;;;;;;;;;;;;;;====@@  ",
"  $$##==;;;;;;;;;;;;;;;;====@@  ",
"    ..==;;==;;;;;;;;========$$  ",
"    ..==;;==;;;;;;;;========$$  ",
"      ##;;==**====####;;;;@@    ",
"      ##;;==**====####;;;;@@    ",
"      ######;;##;;==;;####++    ",
"      ######;;##;;==;;####++    ",
"      ++XX############..oo      ",
"      ++XX############..oo      ",
"    ++----%%--&&----------++    ",
"    ++----%%--&&----------++    ",
"      ++--OO++++++++++--++      ",
"      ++--OO++++++++++--++      ",
"        ++            ++        ",
"        ++            ++        "
};
